<svg width="230" height="183" viewBox="0 0 230 183" fill="none" xmlns="http://www.w3.org/2000/svg">
<path d="M54.18 0H64.99V51.93H54.18V0Z" fill="black"/>
<path d="M75.38 0H86.76V9.6H75.38V0ZM75.66 13.8H86.47V51.93H75.66V13.8Z" fill="black"/>
<path d="M96.65 13.8H107.46V19.21C109.95 16.01 113.15 13.09 118.63 13.09C126.81 13.09 131.58 18.5 131.58 27.25V51.93H120.77V30.66C120.77 25.54 118.35 22.91 114.23 22.91C110.11 22.91 107.47 25.54 107.47 30.66V51.93H96.66V13.8H96.65Z" fill="black"/>
<path d="M139.12 33.08V32.94C139.12 21.99 147.94 13.09 159.82 13.09C171.7 13.09 180.38 21.84 180.38 32.79V32.93C180.38 43.89 171.56 52.78 159.68 52.78C147.8 52.78 139.12 44.03 139.12 33.08ZM169.71 33.08V32.94C169.71 27.32 165.66 22.41 159.68 22.41C153.7 22.41 149.79 27.18 149.79 32.8V32.94C149.79 38.56 153.84 43.47 159.82 43.47C165.8 43.47 169.71 38.7 169.71 33.08Z" fill="black"/>
<path d="M101.12 75.57H101.48C108.36 75.57 113.84 79.09 117.89 86.11C119.15 89.08 119.77 91.62 119.77 93.72L119.44 93.9H86.43V94.05C86.43 103.62 90.05 109.67 97.3 112.2C99.01 112.54 100.28 112.71 101.1 112.71C106.78 112.71 112.08 109.9 117.01 104.27H117.34C117.51 104.27 117.69 104.44 117.88 104.78V104.96C112.9 110.83 107.43 113.77 101.47 113.77H100.42C93.63 113.77 88.39 110.42 84.69 103.73C83.31 100.54 82.62 97.55 82.62 94.74C82.62 86.86 86.59 80.87 94.54 76.77C97 75.97 99.19 75.57 101.1 75.57H101.12ZM86.44 92.67H115.97V92.49C115.97 87.78 113.9 83.35 109.77 79.19C107.28 77.23 104.56 76.25 101.62 76.25H100.42C95.03 76.25 90.83 79.66 87.81 86.47C87.23 88.14 86.77 90.2 86.43 92.67H86.44Z" fill="black"/>
<path d="M133.62 75.38C137.32 75.38 140.58 76.65 143.4 79.18V84.43C143.4 84.67 143.28 84.79 143.04 84.79L142.86 84.43V83.74C142.86 80.72 141.47 78.57 138.69 77.29C137.48 76.69 136.02 76.38 134.31 76.38H133.98C133.86 76.38 133.8 76.33 133.8 76.23L133.44 76.38H132.93C130.13 76.38 128.21 77.55 127.17 79.9C126.81 80.99 126.63 81.98 126.63 82.87V83.38C126.63 87.32 130.3 90.4 137.65 92.62C144.39 95.18 147.76 98.79 147.76 103.45C147.76 107.8 145.32 110.88 140.44 112.69C138.36 113.39 136.44 113.74 134.68 113.74H134.17C129.44 113.74 125.24 112.11 121.6 108.85V101.89C121.62 101.65 121.73 101.53 121.93 101.53L122.11 101.89C122.11 109.09 126.24 112.69 134.5 112.69C138.51 112.69 141.3 111.18 142.87 108.16C143.45 107.05 143.74 105.83 143.74 104.5V103.27C143.74 98.34 139.73 94.62 131.71 92.11C126.01 89.82 123.16 86.84 123.16 83.2C123.16 79.17 125.95 76.61 131.53 75.52C132.13 75.42 132.83 75.37 133.63 75.37L133.62 75.38Z" fill="black"/>
<path d="M43.5 139.08C47.2 139.08 50.46 140.35 53.28 142.88V148.13C53.28 148.37 53.16 148.49 52.92 148.49L52.74 148.13V147.44C52.74 144.42 51.35 142.27 48.57 140.99C47.36 140.39 45.9 140.08 44.19 140.08H43.86C43.74 140.08 43.68 140.03 43.68 139.93L43.32 140.08H42.81C40.01 140.08 38.09 141.25 37.05 143.6C36.69 144.69 36.51 145.68 36.51 146.57V147.08C36.51 151.02 40.18 154.1 47.53 156.32C54.27 158.88 57.64 162.49 57.64 167.15C57.64 171.5 55.2 174.58 50.32 176.39C48.24 177.09 46.32 177.44 44.56 177.44H44.05C39.32 177.44 35.12 175.81 31.48 172.55V165.59C31.5 165.35 31.61 165.23 31.81 165.23L31.99 165.59C31.99 172.79 36.12 176.39 44.38 176.39C48.39 176.39 51.18 174.88 52.75 171.86C53.33 170.75 53.62 169.53 53.62 168.2V166.97C53.62 162.04 49.61 158.32 41.59 155.81C35.89 153.52 33.04 150.54 33.04 146.9C33.04 142.87 35.83 140.31 41.41 139.22C42.01 139.12 42.71 139.07 43.51 139.07L43.5 139.08Z" fill="black"/>
<path d="M59.8 139.7H66.61C66.83 139.72 66.94 139.85 66.94 140.06C65.66 140.06 65.02 140.52 65.02 141.44V166.37C65.02 170.53 66.59 173.25 69.73 174.56C71.9 175.02 73.24 175.25 73.75 175.25C79.18 175.25 83.24 171.65 85.92 164.45L86.1 163.22V141.44C86.1 140.72 85.46 140.26 84.18 140.06V139.88L84.54 139.7H91.5C91.74 139.72 91.86 139.85 91.86 140.06C90.58 140.25 89.94 140.71 89.94 141.44V175.25C89.94 175.54 90.58 175.89 91.86 176.3V176.48L91.5 176.63H86.46C86.22 176.63 86.1 176.52 86.1 176.3V167.42H85.92C84.66 170.51 82.22 173.06 78.6 175.07C76.57 176.11 74.37 176.63 72 176.63H71.82C66.51 176.63 63.07 174.37 61.53 169.85C61.41 169.25 61.35 168.67 61.35 168.11V141.44C61.35 140.52 60.71 140.06 59.43 140.06V139.88L59.79 139.7H59.8Z" fill="black"/>
<path d="M109.59 138.97C115.1 138.97 118.95 141.05 121.15 145.2C122.04 147.16 122.49 148.85 122.49 150.27C122.51 150.27 122.56 150.8 122.63 151.86C122.61 155.41 122.59 158.21 122.59 160.27V174.98C122.71 175.78 123.22 176.18 124.11 176.18C124.35 176.18 124.47 176.22 124.47 176.29V176.47C124.47 176.54 124.43 176.58 124.36 176.58H119.21C119.14 176.58 119.1 176.54 119.1 176.47V171.47C115.77 174.8 111.78 176.47 107.14 176.47C103.08 176.47 99.54 175.19 96.52 172.63C94.61 170.77 93.66 168.8 93.66 166.72C93.66 161.65 97.39 158 104.86 155.78C109.72 154.31 112.94 153.22 114.54 152.52C116.91 151.46 118.32 150.33 118.78 149.15C118.83 149.08 118.85 149.03 118.85 149C118.85 148.06 118.37 146.62 117.4 144.69C115.18 141.53 112.1 139.94 108.16 139.94H107.94C104.36 139.94 101.27 141.1 98.66 143.42C97.38 144.63 96.51 146.22 96.05 148.2C95.91 149.02 95.83 149.5 95.83 149.65H95.47C95.52 149.21 95.54 148.9 95.54 148.71V145.88C95.54 144.04 96.14 142.84 97.35 142.26C99.74 140.81 102.74 139.81 106.34 139.25C107.45 139.06 108.53 138.96 109.56 138.96L109.59 138.97ZM97.16 167.56C97.16 170.48 98.79 172.75 102.05 174.37C103.91 175.22 105.85 175.64 107.88 175.64C112.57 175.64 116.31 173.83 119.11 170.2V156.25C119.11 156.1 119.1 155.9 119.07 155.63C119.09 155.61 119.11 155.46 119.11 155.2V154.11C119.11 153.51 119.13 152.91 119.18 152.33L119.07 150.48C117.38 151.78 115.87 152.71 114.54 153.27C113.36 153.78 110.24 155.01 105.19 156.97C99.83 159.34 97.15 162.87 97.15 167.55L97.16 167.56Z" fill="black"/>
<path d="M154.6 140.28H152.93C152.86 140.26 152.06 142.09 150.54 145.79C143.46 162.8 139.39 173.15 138.33 176.84H138.18C137.94 176.77 133.41 165.58 124.59 143.29C123.84 141.19 122.72 140.14 121.22 140.14V139.92L121.58 139.77H128.43C128.7 139.79 128.83 139.92 128.83 140.13C127.86 140.44 127.38 140.72 127.38 140.96L139.37 171H139.59C147.47 151.36 151.66 141.15 152.16 140.38C150.71 140.36 150.05 140.2 150.17 139.91L150.24 139.76H154.59V140.27L154.6 140.28Z" fill="black"/>
<path d="M169.82 139.26H170.18C177.06 139.26 182.54 142.78 186.59 149.8C187.85 152.77 188.47 155.31 188.47 157.41L188.14 157.59H155.13V157.74C155.13 167.31 158.75 173.36 166 175.89C167.71 176.23 168.98 176.4 169.8 176.4C175.48 176.4 180.78 173.59 185.71 167.96H186.04C186.21 167.96 186.39 168.13 186.58 168.47V168.65C181.6 174.52 176.13 177.45 170.17 177.45H169.12C162.33 177.45 157.09 174.1 153.39 167.41C152.01 164.22 151.32 161.23 151.32 158.42C151.32 150.54 155.29 144.55 163.24 140.45C165.7 139.65 167.89 139.25 169.8 139.25L169.82 139.26ZM155.14 156.36H184.67V156.18C184.67 151.47 182.6 147.04 178.47 142.88C175.98 140.92 173.26 139.94 170.32 139.94H169.12C163.73 139.94 159.53 143.35 156.51 150.16C155.93 151.83 155.47 153.89 155.13 156.36H155.14Z" fill="black"/>
<path d="M220.62 182.91H1.13C0.51 182.91 0 182.4 0 181.78C0 181.16 0.51 180.65 1.13 180.65H220.62C221.24 180.65 221.75 181.16 221.75 181.78C221.75 182.4 221.24 182.91 220.62 182.91Z" fill="black"/>
<path d="M226.84 171.98C228.46 172.32 229.27 173.07 229.27 174.23C229.27 175.39 228.52 176.1 227.02 176.44C225.43 176.1 224.63 175.41 224.63 174.37C224.94 172.78 225.68 171.98 226.84 171.98Z" fill="black"/>
</svg>
