<svg width="234" height="199" viewBox="0 0 234 199" fill="none" xmlns="http://www.w3.org/2000/svg">
<g clip-path="url(#clip0_46_1737)">
<mask id="mask0_46_1737" style="mask-type:alpha" maskUnits="userSpaceOnUse" x="0" y="-11" width="226" height="132">
<rect y="-11" width="226" height="132" fill="#D9D9D9"/>
</mask>
<g mask="url(#mask0_46_1737)">
<path d="M55.3045 0H66.3375V53.2598H55.3045V0Z" fill="black"/>
<path d="M76.9333 0H88.5524V9.85186H76.9333V0ZM77.2217 14.1515H88.2547V53.2598H77.2217V14.1515Z" fill="black"/>
<path d="M98.6458 14.1516H109.679V19.6944C112.218 16.4136 115.484 13.4225 121.075 13.4225C129.428 13.4225 134.284 18.9653 134.284 27.9386V53.2505H123.251V31.4344C123.251 26.1813 120.786 23.48 116.572 23.48C112.358 23.48 109.679 26.1813 109.679 31.4344V53.2505H98.6458V14.1516Z" fill="black"/>
<path d="M141.987 33.9206V33.7711C141.987 22.5359 150.992 13.4131 163.113 13.4131C175.235 13.4131 184.1 22.3863 184.1 33.6215V33.7711C184.1 45.0063 175.095 54.1291 162.974 54.1291C150.853 54.1291 141.987 45.1559 141.987 33.9206V33.9206ZM173.207 33.9206V33.7711C173.207 28.0039 169.067 22.9752 162.974 22.9752C156.881 22.9752 152.881 27.8637 152.881 33.6309V33.7804C152.881 39.5476 157.02 44.5764 163.113 44.5764C169.207 44.5764 173.207 39.6878 173.207 33.93V33.9206Z" fill="black"/>
<path d="M103.213 77.4969H103.586C110.609 77.4969 116.2 81.1049 120.34 88.3115C121.623 91.3587 122.265 93.9571 122.265 96.1163L121.93 96.3033H88.2361V96.4528C88.2361 106.267 91.9385 112.464 99.3342 115.072C101.083 115.418 102.376 115.596 103.213 115.596C109.009 115.596 114.423 112.707 119.447 106.94H119.782C119.958 106.94 120.135 107.118 120.34 107.464V107.651C115.26 113.67 109.679 116.68 103.586 116.68H102.516C95.5852 116.68 90.2361 113.25 86.4686 106.389C85.0638 103.117 84.3568 100.051 84.3568 97.1726C84.3568 89.0966 88.4128 82.9556 96.5248 78.74C99.0365 77.9175 101.269 77.5156 103.223 77.5156L103.213 77.4969ZM88.2361 95.0414H118.377V94.8545C118.377 90.022 116.265 85.4793 112.051 81.217C109.511 79.2074 106.739 78.2073 103.725 78.2073H102.506C97.0085 78.2073 92.72 81.7031 89.6408 88.6854C89.0454 90.3959 88.5803 92.5083 88.2361 95.0414Z" fill="black"/>
<path d="M136.387 77.3099C140.154 77.3099 143.485 78.6092 146.369 81.2077V86.5916C146.369 86.844 146.248 86.9655 145.997 86.9655L145.81 86.5916V85.8906C145.81 82.7967 144.396 80.5908 141.559 79.2728C140.322 78.6559 138.833 78.3475 137.085 78.3475H136.75C136.629 78.3475 136.564 78.3007 136.564 78.1979L136.191 78.3475H135.671C132.815 78.3475 130.852 79.5532 129.791 81.9555C129.419 83.0678 129.233 84.0866 129.233 85.0026V85.526C129.233 89.564 132.982 92.7233 140.48 95.004C147.355 97.6306 150.797 101.332 150.797 106.118C150.797 110.576 148.304 113.736 143.327 115.596C141.206 116.315 139.243 116.671 137.447 116.671H136.926C132.098 116.671 127.819 114.997 124.098 111.651V104.519C124.126 104.276 124.238 104.145 124.433 104.145L124.619 104.519C124.619 111.904 128.833 115.596 137.271 115.596C141.364 115.596 144.21 114.044 145.81 110.95C146.406 109.81 146.694 108.557 146.694 107.193V105.931C146.694 100.874 142.601 97.0604 134.415 94.4806C128.6 92.1251 125.689 89.078 125.689 85.3391C125.689 81.1983 128.535 78.5718 134.229 77.4595C134.843 77.3567 135.559 77.3099 136.378 77.3099H136.387Z" fill="black"/>
</g>
</g>
<defs>
<clipPath id="clip0_46_1737">
<rect width="234" height="199" fill="white"/>
</clipPath>
</defs>
</svg>
