<svg width="234" height="199" viewBox="0 0 234 199" fill="none" xmlns="http://www.w3.org/2000/svg">
<path d="M55.3045 0H66.3375V53.2598H55.3045V0Z" fill="black"/>
<path d="M76.9333 0H88.5524V9.85186H76.9333V0ZM77.2217 14.1515H88.2547V53.2598H77.2217V14.1515Z" fill="black"/>
<path d="M98.6458 14.1516H109.679V19.6944C112.218 16.4136 115.484 13.4225 121.075 13.4225C129.428 13.4225 134.284 18.9653 134.284 27.9385V53.2505H123.251V31.4344C123.251 26.1813 120.786 23.48 116.572 23.48C112.358 23.48 109.679 26.1813 109.679 31.4344V53.2505H98.6458V14.1516Z" fill="black"/>
<path d="M141.987 33.9206V33.7711C141.987 22.5359 150.992 13.4131 163.113 13.4131C175.235 13.4131 184.1 22.3863 184.1 33.6215V33.7711C184.1 45.0063 175.095 54.1291 162.974 54.1291C150.853 54.1291 141.987 45.1559 141.987 33.9206ZM173.207 33.9206V33.7711C173.207 28.0039 169.067 22.9752 162.974 22.9752C156.881 22.9752 152.881 27.8637 152.881 33.6309V33.7804C152.881 39.5476 157.02 44.5764 163.113 44.5764C169.207 44.5764 173.207 39.6878 173.207 33.93V33.9206Z" fill="black"/>
<path d="M103.213 77.4968H103.586C110.609 77.4968 116.2 81.1048 120.34 88.3114C121.623 91.3586 122.265 93.9571 122.265 96.1163L121.93 96.3032H88.2361V96.4528C88.2361 106.267 91.9385 112.464 99.3342 115.072C101.083 115.418 102.376 115.596 103.213 115.596C109.009 115.596 114.423 112.707 119.447 106.94H119.782C119.958 106.94 120.135 107.118 120.34 107.464V107.651C115.26 113.67 109.679 116.68 103.586 116.68H102.516C95.5852 116.68 90.2361 113.25 86.4686 106.389C85.0638 103.117 84.3568 100.051 84.3568 97.1725C84.3568 89.0966 88.4128 82.9555 96.5248 78.74C99.0365 77.9174 101.269 77.5155 103.223 77.5155L103.213 77.4968ZM88.2361 95.0414H118.377V94.8544C118.377 90.022 116.265 85.4793 112.051 81.217C109.511 79.2073 106.739 78.2072 103.725 78.2072H102.506C97.0085 78.2072 92.72 81.703 89.6408 88.6853C89.0454 90.3958 88.5803 92.5083 88.2361 95.0414Z" fill="black"/>
<path d="M136.387 77.3099C140.154 77.3099 143.485 78.6092 146.369 81.2077V86.5916C146.369 86.844 146.248 86.9655 145.997 86.9655L145.81 86.5916V85.8906C145.81 82.7967 144.396 80.5908 141.559 79.2728C140.322 78.6559 138.833 78.3475 137.085 78.3475H136.75C136.629 78.3475 136.564 78.3007 136.564 78.1979L136.191 78.3475H135.671C132.815 78.3475 130.852 79.5532 129.791 81.9555C129.419 83.0678 129.233 84.0866 129.233 85.0026V85.526C129.233 89.564 132.982 92.7233 140.48 95.004C147.355 97.6306 150.797 101.332 150.797 106.118C150.797 110.576 148.304 113.736 143.327 115.596C141.206 116.315 139.243 116.671 137.447 116.671H136.926C132.098 116.671 127.819 114.997 124.098 111.651V104.519C124.126 104.276 124.238 104.145 124.433 104.145L124.619 104.519C124.619 111.904 128.833 115.596 137.271 115.596C141.364 115.596 144.21 114.044 145.81 110.95C146.406 109.81 146.694 108.557 146.694 107.193V105.931C146.694 100.874 142.601 97.0604 134.415 94.4806C128.6 92.1251 125.689 89.078 125.689 85.3391C125.689 81.1983 128.535 78.5718 134.229 77.4595C134.843 77.3567 135.559 77.3099 136.378 77.3099H136.387Z" fill="black"/>
<path d="M30.8756 127.803H35.7223C35.9456 127.831 36.0572 127.943 36.0572 128.14V179.455C36.1317 180.343 36.7456 180.792 37.9085 180.792V180.979L37.5736 181.128H30.8756C30.6524 181.128 30.5407 181.016 30.5407 180.792C31.871 180.792 32.5408 180.296 32.5408 179.306V129.626C32.5408 128.785 31.8803 128.289 30.5407 128.14V127.953L30.8756 127.803Z" fill="black"/>
<path d="M40.0853 143.375H45.3041C45.5274 143.422 45.639 143.553 45.639 143.749V179.352C45.7413 180.315 46.4018 180.801 47.6391 180.801V180.988L47.267 181.138H40.0946C39.8713 181.138 39.7597 181.026 39.7597 180.801C41.1923 180.801 41.9086 180.147 41.9086 178.829V145.722C41.9086 144.413 41.1923 143.749 39.7597 143.749V143.562L40.0946 143.375H40.0853ZM43.4901 131.187H44.0482C45.3785 131.187 46.2065 132.15 46.5228 134.084C46.5228 135.468 45.5088 136.3 43.4901 136.571C41.8342 136.103 41.0156 135.271 41.0156 134.084V133.71C41.4807 132.028 42.3086 131.187 43.4901 131.187Z" fill="black"/>
<path d="M67.9748 143.114H68.1236C73.1285 143.114 77.5659 145.086 81.4358 149.021V143.74C81.4637 143.497 81.566 143.366 81.7707 143.366H86.7662C87.0081 143.413 87.1383 143.544 87.1383 143.74C85.8546 143.74 85.2127 144.198 85.2127 145.114V175.212C85.2127 185.914 83.4824 192.392 80.0311 194.644C77.1472 197.542 73.2959 198.991 68.4957 198.991H66.7561C66.5794 198.991 66.4119 198.813 66.2352 198.467V198.28C66.2352 198.103 66.4026 197.935 66.7561 197.757H67.7887C74.0773 197.757 78.1519 195.093 80.0311 189.765C80.8404 186.746 81.2497 183.512 81.2497 180.063V175.716C77.5472 179.53 73.0634 181.437 67.7887 181.437H67.6027C60.5233 181.437 54.9417 177.502 50.8485 169.622C49.9369 166.622 49.481 164.145 49.481 162.191C49.481 154.76 53.1091 148.974 60.3559 144.834C62.8676 143.665 65.4072 143.086 67.9748 143.086V143.114ZM53.2951 162.21V162.359C53.2951 171.323 56.9232 177.352 64.17 180.418C65.891 180.764 67.2771 180.941 68.3097 180.941C74.0587 180.941 78.3659 177.651 81.259 171.052C81.38 170.033 81.4451 169.173 81.4451 168.454V154.405C80.6544 151.236 78.8682 148.572 76.0867 146.413C73.7983 144.684 71.2679 143.815 68.505 143.815H67.2864C61.9838 143.815 57.779 147.17 54.6719 153.882C53.7603 156.658 53.3044 159.434 53.3044 162.21H53.2951Z" fill="black"/>
<path d="M107.837 142.815H108.209C115.232 142.815 120.823 146.423 124.963 153.629C126.247 156.676 126.889 159.275 126.889 161.434L126.554 161.621H92.8595V161.771C92.8595 171.585 96.562 177.782 103.958 180.39C105.707 180.736 107 180.913 107.837 180.913C113.632 180.913 119.047 178.025 124.07 172.258H124.405C124.582 172.258 124.758 172.436 124.963 172.781V172.968C119.884 178.988 114.302 181.998 108.209 181.998H107.139C100.209 181.998 94.8596 178.567 91.092 171.707C89.6873 168.435 88.9803 165.369 88.9803 162.49C88.9803 154.414 93.0362 148.273 101.148 144.058C103.66 143.235 105.893 142.833 107.846 142.833L107.837 142.815ZM92.8595 160.359H123V160.172C123 155.34 120.889 150.797 116.674 146.535C114.135 144.525 111.363 143.525 108.348 143.525H107.13C101.632 143.525 97.3434 147.021 94.2642 154.003C93.6688 155.714 93.2037 157.826 92.8595 160.359Z" fill="black"/>
<path d="M149.187 143.226C153.746 143.226 156.89 144.834 158.62 148.058V148.432C158.62 149.105 157.969 149.507 156.657 149.657H156.136C155.541 149.086 154.499 148.142 153.011 146.815C151.522 145.488 149.587 144.824 147.224 144.824H146.89C141.438 144.824 137.336 148.703 134.573 156.452V179.343C134.573 180.306 135.224 180.792 136.536 180.792V180.979L136.201 181.128H129.066C128.842 181.128 128.731 181.016 128.731 180.792C130.135 180.792 130.842 180.016 130.842 178.455V146.273C130.842 144.712 130.312 143.936 129.252 143.936C128.907 143.936 128.731 143.824 128.731 143.6L129.066 143.413H134.247C134.47 143.441 134.582 143.562 134.582 143.787V152.704H134.768C138.266 146.385 143.075 143.226 149.187 143.226Z" fill="black"/>
<path d="M174.556 142.852H175.077C182.789 142.852 188.612 146.927 192.529 155.078C193.468 157.733 193.933 160.21 193.933 162.509C193.933 169.669 190.584 175.389 183.877 179.68C180.965 181.212 178.156 181.979 175.449 181.979H174.742C167.374 181.979 161.662 178.081 157.616 170.276C156.555 167.547 156.025 164.967 156.025 162.509C156.025 154.975 159.485 149.133 166.416 144.974C169.179 143.562 171.886 142.852 174.556 142.852ZM159.913 161.247V163.546C159.913 170.585 162.844 176.081 168.714 180.044C171.104 180.988 173.225 181.456 175.077 181.456C181.933 181.456 186.686 177.212 189.356 168.706C189.822 166.696 190.054 164.743 190.054 162.836V161.948C190.054 153.349 186.463 147.395 179.291 144.076C177.588 143.731 176.416 143.553 175.774 143.553H174.556C167.774 143.553 163.067 147.918 160.425 156.63C160.081 158.508 159.904 160.051 159.904 161.238L159.913 161.247Z" fill="black"/>
<path d="M225.181 187.578H1.15353C0.511648 187.578 0 187.054 0 186.419C0 185.783 0.520951 185.26 1.15353 185.26H225.181C225.823 185.26 226.335 185.783 226.335 186.419C226.335 187.054 225.814 187.578 225.181 187.578Z" fill="black"/>
<path d="M231.525 176.371C233.181 176.717 234 177.483 234 178.67C234 179.857 233.237 180.586 231.712 180.932C230.084 180.586 229.274 179.876 229.274 178.81C229.591 177.175 230.344 176.361 231.525 176.361V176.371Z" fill="black"/>
</svg>
