<svg width="271" height="216" viewBox="0 0 271 216" fill="none" xmlns="http://www.w3.org/2000/svg">
<path d="M64.0493 0H76.8268V61.3299H64.0493V0Z" fill="white"/>
<path d="M89.098 0H102.554V11.3446H89.098V0ZM89.4319 16.2958H102.209V61.3299H89.4319V16.2958Z" fill="white"/>
<path d="M114.244 16.2958H127.021V22.6785C129.962 18.9006 133.744 15.4563 140.219 15.4563C149.894 15.4563 155.517 21.839 155.517 32.1719V61.3192H142.74V36.1974C142.74 30.1483 139.885 27.0377 135.004 27.0377C130.124 27.0377 127.021 30.1483 127.021 36.1974V61.3192H114.244V16.2958Z" fill="white"/>
<path d="M164.438 39.0605V38.8883C164.438 25.9506 174.867 15.4456 188.905 15.4456C202.943 15.4456 213.21 25.7784 213.21 38.716V38.8883C213.21 51.8259 202.781 62.3309 188.743 62.3309C174.705 62.3309 164.438 51.9981 164.438 39.0605V39.0605ZM200.594 39.0605V38.8883C200.594 32.2472 195.8 26.4565 188.743 26.4565C181.687 26.4565 177.054 32.0858 177.054 38.7268V38.899C177.054 45.54 181.848 51.3307 188.905 51.3307C195.962 51.3307 200.594 45.7015 200.594 39.0712V39.0605Z" fill="white"/>
<path d="M119.533 89.2395H119.964C128.099 89.2395 134.573 93.3942 139.368 101.693C140.854 105.202 141.598 108.194 141.598 110.68L141.21 110.895H102.188V111.068C102.188 122.369 106.476 129.505 115.041 132.508C117.066 132.907 118.564 133.111 119.533 133.111C126.245 133.111 132.516 129.785 138.333 123.144H138.721C138.926 123.144 139.131 123.349 139.368 123.747V123.962C133.485 130.894 127.021 134.36 119.964 134.36H118.725C110.699 134.36 104.504 130.41 100.141 122.509C98.5141 118.742 97.6953 115.212 97.6953 111.896C97.6953 102.597 102.393 95.5253 111.787 90.671C114.696 89.7238 117.282 89.261 119.544 89.261L119.533 89.2395ZM102.188 109.442H137.094V109.227C137.094 103.662 134.649 98.4314 129.768 93.5233C126.827 91.2092 123.617 90.0575 120.126 90.0575H118.715C112.347 90.0575 107.381 94.083 103.815 102.123C103.125 104.093 102.587 106.526 102.188 109.442Z" fill="white"/>
<path d="M157.952 89.0242C162.316 89.0242 166.173 90.5203 169.512 93.5125V99.7122C169.512 100.003 169.372 100.143 169.081 100.143L168.866 99.7122V98.905C168.866 95.3423 167.228 92.8021 163.942 91.2845C162.509 90.5741 160.786 90.2189 158.76 90.2189H158.372C158.232 90.2189 158.157 90.1651 158.157 90.0467L157.726 90.2189H157.123C153.815 90.2189 151.542 91.6074 150.314 94.3736C149.883 95.6544 149.667 96.8276 149.667 97.8825V98.4852C149.667 103.135 154.009 106.773 162.693 109.399C170.654 112.424 174.641 116.686 174.641 122.197C174.641 127.331 171.753 130.969 165.989 133.111C163.533 133.94 161.26 134.349 159.18 134.349H158.577C152.986 134.349 148.03 132.422 143.72 128.569V120.356C143.753 120.077 143.882 119.926 144.108 119.926L144.324 120.356C144.324 128.86 149.204 133.111 158.976 133.111C163.716 133.111 167.013 131.324 168.866 127.762C169.555 126.449 169.889 125.006 169.889 123.435V121.982C169.889 116.159 165.149 111.767 155.668 108.797C148.935 106.084 145.563 102.575 145.563 98.2699C145.563 93.5018 148.859 90.4772 155.453 89.1964C156.164 89.078 156.993 89.0242 157.941 89.0242H157.952Z" fill="white"/>
<path d="M48.8046 165.649H46.833C46.7468 165.617 45.8095 167.791 44.0103 172.15C35.6392 192.235 30.8341 204.462 29.5736 208.821H29.4012C29.1211 208.735 23.7666 195.528 13.3377 169.201C12.4543 166.714 11.1292 165.477 9.3515 165.477V165.218L9.78245 165.046H17.8734C18.1859 165.078 18.3475 165.218 18.3475 165.477C17.2055 165.843 16.6345 166.176 16.6345 166.456L30.8126 201.932H31.0711C40.3796 178.737 45.3354 166.682 45.9388 165.778C44.2258 165.746 43.4393 165.563 43.5793 165.218L43.6655 165.046H48.8046V165.649V165.649Z" fill="white"/>
<path d="M66.7965 164.454H67.2275C75.3616 164.454 81.8365 168.609 86.6308 176.907C88.1176 180.416 88.8609 183.408 88.8609 185.895L88.4731 186.11H49.451V186.282C49.451 197.584 53.7389 204.72 62.3039 207.723C64.3294 208.121 65.8269 208.326 66.7965 208.326C73.5085 208.326 79.7788 205 85.5965 198.359H85.9844C86.1891 198.359 86.3938 198.563 86.6308 198.962V199.177C80.7484 206.108 74.2842 209.574 67.2275 209.574H65.9885C57.9622 209.574 51.7673 205.624 47.404 197.724C45.7772 193.957 44.9584 190.426 44.9584 187.111C44.9584 177.811 49.6557 170.74 59.0503 165.886C61.9592 164.938 64.5448 164.476 66.8073 164.476L66.7965 164.454ZM49.451 184.657H84.3576V184.442C84.3576 178.877 81.9119 173.646 77.0315 168.738C74.0903 166.424 70.8797 165.272 67.3891 165.272H65.9777C59.6105 165.272 54.6439 169.298 51.0778 177.338C50.3883 179.308 49.8496 181.74 49.451 184.657V184.657Z" fill="white"/>
<path d="M114.675 164.928C119.954 164.928 123.595 166.779 125.599 170.492V170.923C125.599 171.698 124.845 172.161 123.326 172.333H122.722C122.033 171.676 120.826 170.589 119.103 169.061C117.379 167.532 115.138 166.768 112.401 166.768H112.013C105.7 166.768 100.949 171.235 97.7492 180.158V206.518C97.7492 207.626 98.5033 208.186 100.022 208.186V208.401L99.6346 208.573H91.3712C91.1126 208.573 90.9833 208.444 90.9833 208.186C92.6102 208.186 93.429 207.293 93.429 205.495V168.437C93.429 166.639 92.8149 165.746 91.5867 165.746C91.188 165.746 90.9833 165.617 90.9833 165.358L91.3712 165.143H97.3721C97.6307 165.175 97.76 165.315 97.76 165.574V175.842H97.9754C102.026 168.566 107.596 164.928 114.675 164.928V164.928Z" fill="white"/>
<path d="M146.543 164.11C153.05 164.11 157.607 166.564 160.204 171.472C161.26 173.786 161.788 175.777 161.788 177.467C161.82 177.467 161.874 178.091 161.96 179.351C161.928 183.548 161.917 186.853 161.917 189.274V206.647C162.057 207.583 162.66 208.057 163.716 208.057C163.996 208.057 164.147 208.1 164.147 208.186V208.401C164.147 208.487 164.104 208.53 164.018 208.53H157.931C157.845 208.53 157.801 208.487 157.801 208.401V202.492C153.858 206.431 149.15 208.401 143.666 208.401C138.872 208.401 134.681 206.894 131.115 203.87C128.863 201.674 127.732 199.349 127.732 196.895C127.732 190.9 132.139 186.594 140.962 183.968C146.705 182.224 150.518 180.944 152.404 180.115C155.205 178.855 156.875 177.532 157.414 176.132C157.467 176.046 157.5 175.992 157.5 175.96C157.5 174.851 156.929 173.151 155.787 170.869C153.158 167.134 149.517 165.261 144.862 165.261H144.604C140.38 165.261 136.717 166.628 133.636 169.373C132.117 170.804 131.094 172.688 130.555 175.024C130.383 175.992 130.296 176.563 130.296 176.735H129.865C129.919 176.218 129.952 175.852 129.952 175.626V172.29C129.952 170.126 130.663 168.695 132.096 168.006C134.918 166.295 138.463 165.111 142.718 164.454C144.033 164.228 145.304 164.11 146.532 164.11H146.543ZM131.848 197.874C131.848 201.329 133.776 204.01 137.633 205.915C139.831 206.916 142.126 207.411 144.528 207.411C150.066 207.411 154.494 205.269 157.812 200.996V184.517C157.812 184.345 157.801 184.108 157.769 183.785C157.801 183.753 157.812 183.581 157.812 183.268V181.988C157.812 181.277 157.845 180.578 157.898 179.889L157.769 177.704C155.765 179.243 153.988 180.341 152.415 180.997C151.014 181.6 147.329 183.053 141.361 185.367C135.026 188.166 131.848 192.331 131.848 197.864V197.874Z" fill="white"/>
<path d="M190.101 164.712C198.386 165.649 202.523 169.104 202.523 175.067V206.733C202.523 207.701 203.212 208.186 204.581 208.186V208.573H195.886V208.186C197.395 208.186 198.159 207.626 198.159 206.517V178.145C198.159 172.15 196.306 168.576 192.589 167.403C191.07 166.865 189.487 166.596 187.838 166.596H186.987C182.247 166.596 178.174 169.621 174.781 175.67C173.52 178.177 172.895 180.266 172.895 181.912V205.915C172.895 207.432 173.725 208.186 175.384 208.186V208.401L174.996 208.573H166.69C166.431 208.573 166.302 208.444 166.302 208.186C167.735 208.186 168.489 207.626 168.575 206.517V167.145C168.489 166.058 167.735 165.52 166.302 165.52V165.304L166.69 165.089H172.518C172.777 165.121 172.906 165.261 172.906 165.52V175.874C177.28 168.426 183.012 164.702 190.122 164.702L190.101 164.712Z" fill="white"/>
<path d="M228.186 164.497H228.789C237.72 164.497 244.465 169.19 249 178.576C250.088 181.632 250.627 184.485 250.627 187.133C250.627 195.377 246.749 201.964 238.981 206.905C235.609 208.67 232.355 209.553 229.22 209.553H228.401C219.868 209.553 213.253 205.064 208.567 196.077C207.339 192.934 206.725 189.963 206.725 187.133C206.725 178.457 210.732 171.73 218.759 166.94C221.958 165.315 225.094 164.497 228.186 164.497V164.497ZM211.228 185.679V188.327C211.228 196.432 214.622 202.761 221.42 207.325C224.189 208.412 226.645 208.95 228.789 208.95C236.729 208.95 242.234 204.063 245.326 194.269C245.865 191.955 246.134 189.705 246.134 187.509V186.487C246.134 176.584 241.976 169.728 233.669 165.907C231.698 165.509 230.34 165.304 229.597 165.304H228.186C220.332 165.304 214.88 170.331 211.82 180.362C211.422 182.526 211.217 184.302 211.217 185.669L211.228 185.679Z" fill="white"/>
<path d="M260.787 216H1.33593C0.59255 216 0 215.397 0 214.665C0 213.933 0.603324 213.331 1.33593 213.331H260.787C261.53 213.331 262.123 213.933 262.123 214.665C262.123 215.397 261.519 216 260.787 216Z" fill="white"/>
<path d="M268.134 203.095C270.052 203.493 271 204.375 271 205.742C271 207.109 270.117 207.949 268.35 208.347C266.464 207.949 265.527 207.131 265.527 205.904C265.893 204.02 266.766 203.084 268.134 203.084V203.095Z" fill="white"/>
</svg>
