<svg width="776" height="79" viewBox="0 0 776 79" fill="none" xmlns="http://www.w3.org/2000/svg">
<path d="M18.745 39.1484H18.6923L11.6893 56.527L4.71103 39.1484H4.65837L1.22344 55.8574H0L4.31147 35L11.6893 53.369L19.0919 35L23.4065 55.8574H22.1799L18.745 39.1484Z" fill="white"/>
<path d="M44.8678 55.8574L36.4802 35L28.0648 55.8574H29.3719L30.713 52.5405L36.4802 38.267L42.4643 53.1478L43.5607 55.8574H44.8678Z" fill="white"/>
<path d="M103.305 35.5356H104.584V48.1211C104.584 50.1829 104.584 51.9519 103.225 53.6368C101.865 55.1909 99.7896 55.9913 97.767 55.9913C95.7445 55.9913 93.6662 55.1878 92.3095 53.6368C90.9498 51.9487 90.9498 50.1829 90.9498 48.1211V35.5356H92.2259V47.7474C92.2259 49.5662 92.2259 51.494 93.2666 52.8332C94.2485 54.1195 96.2215 54.7891 97.767 54.7891C99.3126 54.7891 101.282 54.1195 102.267 52.8332C103.308 51.4971 103.308 49.5693 103.308 47.7474V35.5356H103.305Z" fill="white"/>
<path d="M113.012 35.5356H111.736V55.7234H113.012V35.5356Z" fill="white"/>
<path d="M129.747 38.8556C128.839 37.4105 127.56 36.473 125.674 36.473C123.515 36.473 121.889 38.214 121.889 40.3318C121.889 42.4497 123.89 43.331 125.513 44.1065L129.347 46.1154C130.862 47.0808 131.636 48.311 131.636 50.133C131.636 53.4779 128.601 55.9975 125.352 55.9975C122.555 55.9975 120.371 54.2565 119.439 51.6591L120.557 51.1514C121.412 53.291 122.982 54.7922 125.404 54.7922C128.043 54.7922 130.357 52.7024 130.357 50.0271C130.357 47.7504 128.043 46.785 126.309 45.9285L122.688 44.0006C121.356 43.1691 120.61 41.9918 120.61 40.3848C120.61 37.3856 122.741 35.2709 125.751 35.2709C127.774 35.2709 129.688 36.3672 130.648 38.1081L129.744 38.8587L129.747 38.8556Z" fill="white"/>
<path d="M54.7049 46.3676C58.1894 46.3676 60.3544 44.3308 60.3544 41.0481C60.3544 39.712 60.0013 37.8714 58.3133 36.6817C56.9071 35.6539 55.2129 35.6539 53.7138 35.6539H49.5293V55.9071H50.7713V36.9589H53.8129C54.1071 36.9589 54.5408 36.9589 54.8381 36.9682C55.6062 36.9994 56.3651 37.099 57.0155 37.4105C58.3102 37.9898 59.1124 39.3632 59.1124 40.9983C59.1124 42.2783 58.6045 43.4245 57.7217 44.1408C56.7461 44.991 55.5691 45.1281 54.2465 45.1281H52.4284L52.8744 45.7821L53.3762 46.5264L59.7567 55.9102H61.2217L54.7049 46.3707V46.3676Z" fill="white"/>
<path d="M102.332 66.5368C88.9613 66.5368 76.9158 62.1703 70.6933 55.1192C70.5725 54.9791 70.4548 54.8389 70.3402 54.6957C71.8579 55.5459 73.6048 56.0318 75.4632 56.0318C81.3543 56.0318 85.8392 51.1296 85.8392 45.5891C85.8392 40.0485 81.0848 35.3052 75.4663 35.3052C69.8477 35.3052 65.0221 39.9395 65.0221 45.6669C65.0221 46.785 65.2017 47.8595 65.5301 48.8686L65.5146 48.853C65.5424 48.9277 65.5734 49.0056 65.6044 49.0803C65.7686 49.5444 65.9606 49.9898 66.1867 50.4227C66.6885 51.4691 67.2893 52.4969 67.9862 53.5091L67.9769 53.5028C67.9986 53.534 68.0234 53.5651 68.0451 53.5963C68.0854 53.6523 68.1256 53.7084 68.1659 53.7645C68.6429 54.4652 69.1787 55.1442 69.7579 55.8075C69.8446 55.9041 69.9314 56.0006 70.015 56.1003C70.1853 56.2872 70.3495 56.4803 70.5291 56.664C70.969 57.1436 71.4769 57.6201 71.9632 58.0873V58.078C78.7649 64.0265 90.0547 67.7452 102.339 67.7452C114.623 67.7452 125.785 64.1137 132.736 58.0312V56.4522C126.222 62.6936 114.675 66.5399 102.339 66.5399M75.4663 36.5105C80.6047 36.5105 84.5662 40.7679 84.5662 45.8258C84.5662 50.1829 80.6977 54.8234 75.4663 54.8234C70.2349 54.8234 66.2982 50.7279 66.2982 45.6669C66.2982 40.606 70.4858 36.5105 75.4663 36.5105Z" fill="white"/>
<path d="M136.892 35.5356C138.035 35.5356 138.946 36.47 138.946 37.6379C138.946 38.8058 138.035 39.7495 136.883 39.7495C135.731 39.7495 134.811 38.8276 134.811 37.6379C134.811 36.4482 135.74 35.5356 136.883 35.5356H136.892ZM136.883 35.8627C135.963 35.8627 135.211 36.66 135.211 37.6379C135.211 38.6158 135.963 39.4225 136.892 39.4225C137.822 39.4318 138.565 38.6376 138.565 37.6472C138.565 36.6568 137.822 35.8627 136.892 35.8627H136.883ZM136.493 38.865H136.121V36.5167C136.316 36.4887 136.502 36.4606 136.781 36.4606C137.134 36.4606 137.366 36.5385 137.506 36.6382C137.648 36.7409 137.719 36.8998 137.719 37.124C137.719 37.4355 137.515 37.6192 137.267 37.694V37.7126C137.472 37.75 137.611 37.94 137.657 38.2826C137.713 38.6501 137.769 38.7871 137.806 38.865H137.416C137.36 38.7902 137.304 38.5753 137.258 38.267C137.202 37.968 137.053 37.8559 136.756 37.8559H136.499V38.865H136.493ZM136.493 37.5663H136.762C137.069 37.5663 137.329 37.451 137.329 37.1645C137.329 36.9589 137.177 36.7534 136.762 36.7534C136.638 36.7534 136.558 36.7627 136.493 36.7721V37.5694V37.5663Z" fill="white"/>
<g clip-path="url(#clip0_66_4728)">
<path d="M151 36.2131H159.334C162.443 36.2469 163.272 36.2807 164.397 36.6188C166.746 37.3249 168.501 39.4508 168.501 42.0425C168.501 43.0904 168.173 44.3674 167.506 45.2801C166.779 46.2567 165.857 46.76 164.596 46.9966C167.177 47.4661 169.589 49.5883 169.589 53.2654C169.589 55.996 168.236 58.4224 165.419 59.4328C163.932 59.9699 162.775 60.0037 160.127 60.0037H151V36.2131ZM155.333 39.8527V45.7834H156.823C158.043 45.7834 158.939 45.7834 159.474 45.7459C160.558 45.7459 161.657 45.7158 162.446 45.2764C163.372 44.8031 164.006 43.8942 164.006 42.8162C164.006 41.9035 163.542 40.9945 162.645 40.4574C161.716 39.9166 161.255 39.8828 158.084 39.849H155.337L155.333 39.8527ZM155.333 49.115V56.1575H159.64C162.221 56.1575 162.911 56.1575 164.036 55.35C164.629 54.9106 165.094 54.0016 165.094 52.856C165.094 52.3151 164.994 51.6766 164.663 51.0719C163.604 49.1526 161.159 49.1526 159.666 49.1526L155.333 49.1188V49.115Z" fill="white"/>
<path d="M195.572 36.2131H203.017C206.126 36.2469 208.209 36.2469 210.263 37.9334C211.72 39.1466 212.841 41.0321 212.841 43.7965C212.841 48.3413 209.563 49.9301 208.25 50.3282L213.438 59.9999H208.445L203.81 51.1733H199.912V59.9999H195.576V36.2131H195.572ZM199.909 40.0555V47.5037H201.424C202.918 47.5037 203.478 47.4699 204.308 47.4361C205.27 47.4023 208.416 47.2333 208.416 43.7627C208.416 43.2557 208.375 41.5054 206.557 40.5626C205.632 40.0893 204.507 40.0555 201.922 40.0555H199.909Z" fill="white"/>
<path d="M214.888 36.2131H223.225C226.33 36.2469 227.156 36.2807 228.285 36.6188C230.634 37.3249 232.393 39.4508 232.393 42.0425C232.393 43.0904 232.057 44.3674 231.401 45.2801C230.671 46.2567 229.749 46.76 228.491 46.9966C231.069 47.4661 233.484 49.5883 233.484 53.2654C233.484 55.996 232.131 58.4224 229.314 59.4328C227.824 59.9699 226.67 60.0037 224.026 60.0037H214.891V36.2131H214.888ZM219.221 39.8527V45.7834H220.714C221.931 45.7834 222.827 45.7834 223.354 45.7459C224.442 45.7459 225.537 45.7158 226.33 45.2764C227.26 44.8031 227.886 43.8942 227.886 42.8162C227.886 41.9035 227.425 40.9945 226.533 40.4574C225.607 39.9166 225.139 39.8828 221.964 39.849H219.221V39.8527ZM219.221 49.115V56.1575H223.517C226.105 56.1575 226.791 56.1575 227.92 55.35C228.517 54.9106 228.978 54.0016 228.978 52.856C228.978 52.3151 228.878 51.6766 228.546 51.0719C227.488 49.1526 225.04 49.1526 223.553 49.1526L219.221 49.1188V49.115Z" fill="white"/>
<path d="M259.843 36.2131H268.214C270.235 36.2469 272.68 36.2807 275.128 38.0686C279.033 40.8631 279.627 45.6482 279.627 48.3112C279.627 52.3865 278.27 56.5331 274.83 58.5539C272.517 59.9361 270.069 59.9699 267.325 60.0037H259.847V36.2131H259.843ZM264.209 40.2584V55.9885H266.06C269.368 55.9885 270.53 55.8195 271.518 55.4514C273.207 54.7753 274.992 53.2955 274.992 48.3375C274.992 46.114 274.664 42.4819 271.422 40.8931C270.161 40.3222 269.464 40.2884 266.529 40.2546H264.209V40.2584Z" fill="white"/>
<path d="M292.335 60C289.392 60 286.674 59.1587 284.296 56.3642C281.984 53.6336 281.187 50.5349 281.187 47.5338C281.187 40.2584 286.018 35 292.397 35C298.187 35 303.615 39.3758 303.574 47.5C303.541 54.3059 299.511 60 292.331 60H292.335ZM292.371 39.0753C288.363 39.0753 285.686 42.3806 285.686 47.331C285.686 52.687 288.595 55.8909 292.467 55.8909C295.381 55.8909 299.112 53.735 299.212 48.0033C299.315 43.3571 296.963 39.0753 292.371 39.0753Z" fill="white"/>
<path d="M307.524 52.319C308.081 53.1941 309.836 55.921 314.766 55.921C315.592 55.921 316.452 55.8534 317.281 55.5191C318.966 54.813 319.265 53.596 319.265 52.7885C319.265 51.2711 318.24 50.7302 317.517 50.4335C316.986 50.2306 316.916 50.1968 314.799 49.6935L311.99 49.0851C310.5 48.717 309.77 48.5442 309.043 48.2437C307.985 47.808 305.105 46.3582 305.105 42.4144C305.105 37.8997 308.844 35.0038 314.339 35.0038C319.361 35.0038 322.079 37.5316 323.735 39.8227L320.158 42.5496C319.361 41.3702 317.845 39.0152 314.103 39.0152C311.761 39.0152 309.703 40.0894 309.703 41.9073C309.703 43.9281 311.886 44.3375 314.003 44.7394L316.418 45.2802C319.564 45.9488 323.996 47.2672 323.996 52.3528C323.996 57.8103 319.029 60 314.066 60C312.779 60 311.322 59.8686 309.899 59.4629C308.346 58.9897 305.599 57.8441 303.847 54.9482L307.52 52.319H307.524Z" fill="white"/>
<path d="M193.905 60H169.25L181.581 35.5897L193.909 59.9963L193.905 60ZM176.293 55.6205H186.855L181.578 45.1675L176.293 55.6205Z" fill="white"/>
<path d="M258.213 60H233.551L245.878 35.5897L258.213 59.9963V60ZM240.601 55.6205H251.166L245.882 45.1675L240.601 55.6205Z" fill="white"/>
</g>
<g clip-path="url(#clip1_66_4728)">
<path d="M360.655 36.1122C361.013 36.2697 361.37 36.4667 361.649 36.7819C361.887 37.0576 362.086 37.4122 362.245 37.7667C362.365 38.1213 362.484 38.5152 362.524 38.8697L362.683 40.1697H364.233L364.035 34.5758H343.159L343 40.1697H344.551L344.71 38.8697C344.75 38.4758 344.829 38.1213 344.948 37.7667C345.187 37.0182 345.783 36.4273 346.539 36.1516C347.016 35.994 347.493 35.9152 348.01 35.9152H351.827V55.1788C351.827 55.6516 351.748 56.0849 351.549 56.4788C351.39 56.794 351.112 57.0697 350.794 57.2667C350.475 57.4243 350.118 57.5425 349.72 57.5819C349.322 57.6213 348.925 57.6607 348.487 57.6607H347.811V58.6849H359.144V57.6607H358.468C358.07 57.6607 357.633 57.6213 357.235 57.5819C356.877 57.5425 356.48 57.4243 356.162 57.2273C355.843 57.0303 355.605 56.7546 355.406 56.4C355.207 55.9667 355.128 55.494 355.128 55.0213V35.8758H359.024C359.661 35.8758 360.178 35.9546 360.655 36.1122Z" fill="white"/>
<path d="M376.997 57.1091C377.355 56.7151 377.753 56.2424 378.15 55.8091L378.23 55.7303H378.787L379.383 58.6848H384.115V57.6606C383.757 57.6606 383.399 57.6212 383.081 57.5424C382.763 57.4636 382.485 57.3061 382.246 57.0697C382.007 56.8333 381.848 56.5576 381.769 56.2424C381.689 55.8485 381.61 55.4151 381.65 54.9818V46.0788C381.689 45.1727 381.53 44.2667 381.212 43.3606C380.974 42.6909 380.536 42.0606 379.98 41.6273C379.383 41.1545 378.667 40.8 377.912 40.6424C376.918 40.4455 375.924 40.3273 374.93 40.3273C374.055 40.3273 373.18 40.3667 372.305 40.5242C371.59 40.6424 370.874 40.8 370.198 41.1151C369.681 41.3121 369.204 41.6667 368.806 42.1C368.488 42.4939 368.289 42.9667 368.329 43.4788C368.249 44.0697 368.528 44.6606 369.045 44.9758C369.681 45.2909 370.397 45.4485 371.112 45.4091C371.112 44.9758 371.152 44.5424 371.232 44.0697C371.311 43.597 371.51 43.1636 371.788 42.8091C372.067 42.4151 372.464 42.1394 372.902 41.9818C373.498 41.7848 374.134 41.6667 374.731 41.7061C375.407 41.6667 376.043 41.7848 376.679 42.0212C377.156 42.2182 377.554 42.5333 377.832 42.9667C378.111 43.4 378.27 43.8727 378.349 44.3848C378.429 44.9758 378.469 45.5273 378.469 46.1182V48.3636L375.128 48.4818C372.305 48.5606 370.158 49.0333 368.766 49.9C367.375 50.7667 366.738 52.0273 366.738 53.8C366.738 54.6273 366.858 55.4151 367.176 56.1636C367.454 56.7939 367.852 57.3455 368.369 57.8182C368.886 58.2515 369.482 58.6061 370.158 58.7636C370.874 58.9606 371.669 59.0788 372.425 59.0394C373.101 59.0394 373.737 58.9606 374.373 58.803C374.89 58.6455 375.367 58.4485 375.804 58.1333C376.282 57.8182 376.679 57.503 376.997 57.1091ZM373.299 57.3061C372.186 57.3061 371.391 57.0303 370.834 56.4394C370.277 55.8485 370.039 55.0212 370.039 53.8788C370.039 53.2485 370.118 52.6182 370.357 52.0273C370.556 51.4758 370.914 51.003 371.351 50.6485C371.908 50.2545 372.504 49.9394 373.18 49.7818C374.055 49.5455 374.969 49.4273 375.924 49.3879L378.548 49.2697V52.303C378.548 53.0121 378.429 53.7212 378.19 54.3515C377.952 54.9424 377.594 55.4939 377.117 55.9273C376.639 56.3606 376.083 56.7151 375.447 56.9121C374.771 57.1879 374.055 57.3061 373.299 57.3061Z" fill="white"/>
<path d="M398.31 58.6849C398.509 58.6455 398.668 58.6061 398.787 58.5273V57.4243C398.469 57.4636 398.151 57.503 397.833 57.5424C397.396 57.5818 396.998 57.6212 396.561 57.6212C395.726 57.6606 394.891 57.3455 394.334 56.7546C393.777 56.1636 393.499 55.2576 393.499 54.0364V42.2182H398.429V40.6818H393.499V36.4667H392.147C391.988 37.1758 391.789 37.8849 391.471 38.5546C391.193 39.1455 390.835 39.6576 390.397 40.1303C389.96 40.5243 389.443 40.8394 388.886 41.0364C388.449 41.1939 387.972 41.2727 387.534 41.2727V42.2576H390.397V53.9576C390.397 54.7849 390.477 55.6121 390.715 56.4C390.875 56.9909 391.193 57.5424 391.63 57.9758C392.067 58.3697 392.624 58.6849 393.221 58.8424C394.016 59.0394 394.811 59.1182 395.646 59.1182C395.964 59.1182 396.282 59.1182 396.561 59.0788C396.839 59.0394 397.197 59 397.515 58.9606C397.833 58.9212 398.032 58.803 398.31 58.6849Z" fill="white"/>
<path d="M401.929 57.6605V58.6848H412.227V57.6605H411.949C411.551 57.6605 411.114 57.6212 410.716 57.5818C410.319 57.5424 409.961 57.4242 409.643 57.2272C409.325 57.0302 409.086 56.7545 408.887 56.3999C408.688 55.9666 408.609 55.4939 408.609 55.0212V40.6818H402.287V41.706C402.684 41.706 403.042 41.7454 403.4 41.7848C403.758 41.8242 404.116 41.9818 404.473 42.1393C404.792 42.3363 405.07 42.6121 405.229 42.9272C405.428 43.3212 405.507 43.7939 405.507 44.2272V55.0999C405.507 55.5333 405.428 56.006 405.229 56.3999C405.07 56.7151 404.792 56.9909 404.473 57.1878C404.155 57.3848 403.798 57.503 403.44 57.5424C403.042 57.5818 402.605 57.6212 402.207 57.6212L401.929 57.6605Z" fill="white"/>
<path d="M408.33 33.3939C408.171 33.2364 407.973 33.1576 407.734 33.0788C407.456 33 407.217 33 406.939 33C406.66 33 406.422 33.0394 406.143 33.0788C405.945 33.1182 405.746 33.2364 405.547 33.3939C405.388 33.5515 405.229 33.7485 405.149 33.9848C405.03 34.3 404.99 34.6152 404.99 34.9303C404.99 35.2455 405.03 35.5606 405.149 35.8758C405.229 36.1121 405.388 36.3091 405.547 36.4273C405.706 36.5848 405.945 36.703 406.143 36.7424C406.66 36.8606 407.177 36.8606 407.694 36.7424C407.933 36.6636 408.132 36.5848 408.291 36.4273C408.45 36.2697 408.609 36.0727 408.688 35.8364C408.808 35.5212 408.847 35.2061 408.847 34.8909C408.847 34.5758 408.808 34.2606 408.688 33.9455C408.609 33.7485 408.489 33.5515 408.33 33.3939Z" fill="white"/>
<path d="M430.836 56.8334C431.075 56.5576 431.194 56.2031 431.194 55.8485C431.194 55.6122 431.154 55.4152 430.995 55.2182C430.916 55.1 430.836 55.0212 430.717 54.9425C430.478 55.2182 430.2 55.494 429.922 55.7303C429.524 56.0455 429.126 56.3212 428.689 56.5182C428.212 56.7546 427.655 56.9515 427.138 57.0697C426.542 57.2273 425.906 57.2667 425.269 57.2667C424.434 57.2667 423.599 57.1485 422.804 56.8334C422.088 56.5576 421.452 56.0849 420.975 55.494C420.458 54.8243 420.06 54.0364 419.862 53.2091C419.583 52.1455 419.464 51.0425 419.464 49.9394V49.7425H432.069V48.3637C432.109 47.1819 431.91 46 431.552 44.8576C431.234 43.9122 430.717 43.0849 430.041 42.3758C429.365 41.7061 428.57 41.194 427.655 40.8788C426.621 40.5243 425.548 40.3667 424.434 40.3667C421.81 40.3667 419.782 41.1546 418.39 42.7303C416.999 44.3061 416.243 46.7091 416.243 49.8212C416.203 51.1606 416.442 52.5 416.84 53.7606C417.198 54.8243 417.754 55.8091 418.51 56.6758C419.265 57.4637 420.18 58.094 421.174 58.4485C422.327 58.8819 423.52 59.0788 424.753 59.0788C425.707 59.0788 426.701 59 427.615 58.7637C428.331 58.5667 429.047 58.2909 429.683 57.9364C430.16 57.6212 430.558 57.2667 430.836 56.8334ZM419.544 48.0485C419.663 46.0394 420.14 44.4637 420.935 43.4C421.731 42.3364 423.003 41.7061 424.355 41.7849C425.071 41.7455 425.747 41.9031 426.383 42.2576C426.939 42.5728 427.417 43.0061 427.735 43.5576C428.093 44.1879 428.331 44.8576 428.45 45.5667C428.61 46.394 428.689 47.2606 428.689 48.0879V48.2849H419.583L419.544 48.0485Z" fill="white"/>
<path d="M449.763 42.4546C450.28 42.6515 450.757 43.0061 451.115 43.4394C451.473 43.9122 451.712 44.4243 451.871 45.0152C452.03 45.6849 452.109 46.3546 452.109 47.0637V58.7243H458.273V57.7C457.915 57.7 457.517 57.6606 457.159 57.6212C456.801 57.5819 456.444 57.4243 456.165 57.2273C455.847 57.0303 455.648 56.7152 455.489 56.4C455.33 55.9667 455.251 55.494 455.251 55.0212V46.8667C455.29 45.8425 455.131 44.8576 454.813 43.9122C454.575 43.1637 454.177 42.494 453.62 41.9031C453.064 41.3909 452.428 40.997 451.712 40.7606C450.877 40.4849 450.002 40.3667 449.127 40.3667C448.571 40.3667 448.014 40.4061 447.457 40.4849C446.94 40.5637 446.423 40.7212 445.946 40.9182C445.469 41.1546 444.992 41.4697 444.634 41.8243C444.157 42.297 443.759 42.8091 443.441 43.3606L443.362 43.4394H442.884L442.407 40.6425H436.642V41.6667C437 41.6667 437.397 41.7061 437.755 41.7455C438.113 41.7849 438.471 41.9031 438.829 42.1C439.147 42.297 439.425 42.5728 439.584 42.8879C439.783 43.2819 439.862 43.7546 439.862 44.1879V54.9031C439.902 55.3758 439.783 55.8485 439.584 56.2818C439.425 56.6364 439.147 56.9122 438.829 57.1091C438.511 57.3061 438.153 57.4243 437.755 57.4637C437.357 57.5425 436.92 57.5425 436.522 57.5425H436.403V58.5667H446.145V57.5425C445.787 57.5425 445.389 57.5031 445.032 57.4637C444.674 57.4243 444.316 57.3061 443.958 57.1091C443.64 56.9122 443.362 56.6364 443.203 56.3212C443.004 55.9273 442.924 55.4546 442.924 55.0212V47.8909C442.924 47.1818 443.004 46.4334 443.163 45.7243C443.322 45.0546 443.56 44.4243 443.958 43.8728C444.316 43.3212 444.833 42.8879 445.429 42.5728C446.145 42.2182 446.9 42.0606 447.696 42.1C448.411 42.1 449.087 42.2182 449.763 42.4546Z" fill="white"/>
<path d="M475.092 42.4546C475.609 42.6515 476.086 43.0061 476.444 43.4394C476.802 43.9122 477.041 44.4243 477.2 45.0152C477.359 45.6849 477.438 46.3546 477.438 47.0637V58.7243H483.602V57.7C483.244 57.7 482.846 57.6606 482.488 57.6212C482.13 57.5819 481.773 57.4243 481.494 57.2273C481.176 57.0303 480.977 56.7152 480.818 56.4C480.659 55.9667 480.58 55.494 480.58 55.0606V46.8667C480.619 45.8425 480.46 44.8576 480.182 43.9122C479.943 43.1637 479.546 42.494 478.989 41.9031C478.432 41.3909 477.796 40.997 477.081 40.7606C476.245 40.4849 475.371 40.3667 474.496 40.3667C473.939 40.3667 473.383 40.4061 472.826 40.4849C471.752 40.6425 470.758 41.1152 470.003 41.8637C469.526 42.297 469.128 42.8091 468.81 43.4L468.77 43.4788H468.293L467.776 40.6819H462.01V41.7061C462.368 41.7061 462.766 41.7455 463.124 41.7849C463.482 41.8243 463.839 41.9425 464.197 42.1394C464.515 42.3364 464.794 42.6122 464.953 42.9273C465.152 43.3212 465.231 43.794 465.231 44.2273V54.9425C465.271 55.4152 465.152 55.8879 464.953 56.3212C464.794 56.6758 464.515 56.9515 464.197 57.1485C463.879 57.3455 463.521 57.4637 463.124 57.5031C462.726 57.5819 462.289 57.5819 461.891 57.5819H461.772V58.6061H471.514V57.5819C471.156 57.5819 470.758 57.5425 470.4 57.5031C470.042 57.4637 469.685 57.3455 469.327 57.1485C469.009 56.9515 468.73 56.6758 468.571 56.3606C468.372 55.9667 468.293 55.494 468.293 55.0606V47.8909C468.293 47.1818 468.372 46.4334 468.531 45.7243C468.691 45.0546 468.929 44.4243 469.327 43.8728C469.724 43.3212 470.202 42.8879 470.798 42.5728C471.514 42.2182 472.269 42.0606 473.064 42.1C473.78 42.1 474.456 42.2182 475.092 42.4546Z" fill="white"/>
<path d="M502.767 56.8334C503.006 56.5576 503.125 56.2031 503.125 55.8485C503.125 55.6122 503.046 55.4152 502.926 55.2182C502.847 55.1 502.767 55.0212 502.648 54.9425C502.409 55.2182 502.131 55.494 501.853 55.7303C501.455 56.0455 501.058 56.3212 500.62 56.5182C500.103 56.7546 499.586 56.9515 499.069 57.0697C498.473 57.2273 497.837 57.2667 497.201 57.2667C496.366 57.2667 495.531 57.1485 494.735 56.8334C494.02 56.5576 493.383 56.0849 492.906 55.494C492.389 54.8243 491.992 54.0364 491.793 53.2091C491.514 52.1455 491.395 51.0425 491.395 49.9394V49.7425H503.96V48.3637C504 47.1819 503.801 46 503.443 44.8576C503.125 43.9122 502.608 43.0849 501.932 42.3758C501.256 41.7061 500.461 41.194 499.547 40.8788C498.513 40.5243 497.439 40.3667 496.326 40.3667C493.701 40.3667 491.674 41.1546 490.282 42.7303C488.89 44.3061 488.135 46.7091 488.135 49.8212C488.095 51.1606 488.294 52.5 488.731 53.7606C489.089 54.8243 489.646 55.8091 490.401 56.6758C491.157 57.4637 492.071 58.094 493.105 58.4485C494.258 58.8425 495.491 59.0394 496.723 59.0394C497.678 59.0394 498.672 58.9606 499.586 58.7243C500.302 58.5667 500.978 58.2909 501.614 57.897C502.052 57.5819 502.449 57.2273 502.767 56.8334ZM491.475 48.0485C491.594 46.0394 492.071 44.4637 492.866 43.4C493.662 42.3364 494.934 41.7061 496.246 41.7849C496.962 41.7455 497.638 41.9031 498.274 42.2576C498.831 42.5728 499.308 43.0061 499.626 43.5576C499.984 44.1879 500.223 44.8576 500.342 45.5667C500.501 46.394 500.58 47.2606 500.58 48.0879V48.2849H491.475V48.0485Z" fill="white"/>
</g>
<g clip-path="url(#clip2_66_4728)">
<path d="M523 41.6926C523 40.83 523.249 40.1741 523.745 39.689C524.208 39.2425 524.848 39 525.664 39C526.481 39 527.082 39.2425 527.583 39.689C528.079 40.1382 528.326 40.8273 528.326 41.6926V61.3074C528.326 62.17 528.079 62.8259 527.617 63.2752C527.121 63.7575 526.484 63.9972 525.664 63.9972C524.845 63.9972 524.244 63.7547 523.745 63.3055C523.249 62.859 523 62.1672 523 61.3046V41.6926V41.6926Z" fill="white"/>
<path d="M532.235 41.6926C532.235 40.8273 532.481 40.1741 532.977 39.689C533.439 39.2425 534.08 39 534.896 39C535.254 39 535.642 39.102 536.107 39.3114C536.569 39.5512 536.886 39.8296 537.136 40.1382L548.426 54.7452L548.496 41.6926C548.496 40.8273 548.746 40.1741 549.245 39.689C549.704 39.2425 550.345 39 551.161 39C551.977 39 552.584 39.2425 553.077 39.689C553.573 40.1382 553.825 40.8273 553.825 41.6926V61.3074C553.825 62.17 553.576 62.8259 553.114 63.2752C552.618 63.7575 551.977 63.9972 551.161 63.9972C550.807 63.9972 550.415 63.8925 549.987 63.65C549.525 63.446 549.171 63.1704 548.922 62.859L537.632 48.4256L537.558 61.3074C537.558 62.17 537.309 62.8259 536.849 63.2752C536.351 63.7575 535.71 63.9972 534.894 63.9972C534.077 63.9972 533.476 63.7547 532.975 63.3055C532.479 62.859 532.232 62.1672 532.232 61.3046V41.6926H532.235Z" fill="white"/>
<path d="M557.765 41.8662C557.765 41.0725 558.015 40.4166 558.514 39.9315C559.01 39.4492 559.684 39.2067 560.504 39.2067H566.433C570.376 39.2067 573.466 40.3477 575.668 42.5938C577.834 44.8731 578.936 47.9461 578.936 51.8458C578.936 55.4728 577.834 58.3721 575.631 60.5467C573.429 62.7239 570.481 63.7933 566.79 63.7933H560.574C559.863 63.7933 559.225 63.5866 558.653 63.1732C558.052 62.7597 557.768 62.1011 557.768 61.2026V41.8662H557.765ZM563.091 59.0253H566.714C568.916 59.0253 570.583 58.3336 571.72 56.9528C572.819 55.572 573.392 53.7778 573.392 51.6006C573.392 49.2855 572.822 47.4224 571.649 46.0416C570.478 44.6609 568.704 43.9691 566.36 43.9691H563.091V59.0253Z" fill="white"/>
<path d="M581.66 42.2107C581.66 41.315 581.91 40.5874 582.369 40.0362C582.831 39.485 583.54 39.2067 584.43 39.2067H593.273C594.09 39.2067 594.693 39.4492 595.158 39.8984C595.583 40.3807 595.796 40.9347 595.796 41.5906C595.796 42.2135 595.583 42.7647 595.121 43.2498C594.662 43.7321 594.053 43.9746 593.273 43.9746H586.986V49.0154H592.848C593.665 49.0154 594.302 49.2579 594.764 49.7044C595.226 50.1564 595.442 50.7407 595.442 51.3966C595.442 52.0525 595.229 52.6065 594.764 53.053C594.302 53.5381 593.665 53.7806 592.848 53.7806H586.986V59.0281H593.594C594.413 59.0281 595.014 59.2706 595.476 59.7198C595.904 60.2021 596.114 60.7561 596.114 61.412C596.114 62.0349 595.904 62.5861 595.442 63.0712C594.98 63.5535 594.373 63.796 593.594 63.796H584.393C583.579 63.796 582.939 63.5562 582.44 63.0712C581.91 62.6219 581.66 62.0018 581.66 61.2053V42.2107Z" fill="white"/>
<path d="M606.148 50.6387L600.396 43.0431C600.005 42.558 599.827 42.0399 599.827 41.5245C599.827 40.7969 600.076 40.1768 600.609 39.6945C601.105 39.2453 601.746 39.0055 602.528 39.0055C602.953 39.0055 603.378 39.1075 603.806 39.35C604.198 39.5925 604.552 39.904 604.835 40.2815L609.274 46.3614L613.679 40.2815C613.928 39.904 614.283 39.5925 614.708 39.35C615.102 39.1075 615.527 39.0055 615.986 39.0055C616.732 39.0055 617.372 39.248 617.908 39.6945C618.438 40.1437 618.688 40.7666 618.688 41.5245C618.688 42.0426 618.509 42.558 618.118 43.0431L612.367 50.6387L619.399 59.8218C619.541 60.0285 619.683 60.3014 619.824 60.6156C619.932 60.927 620.003 61.2715 620.003 61.5829C620.003 62.3105 619.753 62.8948 619.257 63.344C618.761 63.7933 618.121 64 617.304 64C616.414 64 615.669 63.6224 615.102 62.8617L609.274 54.9905L603.415 62.8617C602.848 63.6224 602.1 64 601.216 64C600.433 64 599.793 63.7575 599.297 63.3082C598.764 62.8617 598.514 62.3078 598.514 61.5829C598.514 61.2384 598.585 60.927 598.693 60.6156C598.801 60.34 598.942 60.0644 599.118 59.8218L606.151 50.6387H606.148Z" fill="white"/>
</g>
<path d="M682.155 43.6741C682.155 44.3181 681.817 44.4317 681.892 44.3558C681.742 44.5832 681.441 44.0529 681.291 43.8258C681.103 43.4846 681.028 43.106 680.878 42.7269C679.752 39.9621 677.5 39.1666 674.535 40.0001C672.208 40.6436 671.232 42.159 671.532 44.2048C671.794 45.8332 672.958 46.7425 674.272 47.4246C676.224 48.4092 678.251 49.2428 680.24 50.2652C682.379 51.3638 683.468 53.2955 683.543 55.6437C683.618 58.144 682.379 60.0759 680.315 61.3257C676.824 63.4849 673.183 63.2577 669.58 61.5155C668.942 61.2122 668.754 60.72 668.754 60.1521C668.754 58.9397 668.792 57.7277 668.904 56.5534C668.942 56.288 669.129 55.7958 669.43 55.8334C669.355 55.8334 669.842 55.7579 669.918 56.5911C670.03 57.6895 670.405 58.7885 670.856 59.773C671.869 61.8562 674.647 62.4245 676.336 62.0838C677.725 61.8184 679.039 61.326 680.015 60.1899C681.704 58.1821 681.441 55.0007 679.264 53.561C677.612 52.4624 675.698 51.7047 673.934 50.7576C672.995 50.2654 672.019 49.773 671.194 49.1292C668.641 47.2351 668.491 43.4471 670.743 41.2121C672.432 39.5454 674.497 38.9018 676.786 39.0154C678.175 39.0532 679.564 39.432 680.915 39.6213C681.741 39.7349 682.079 40.2275 682.079 41.0611" fill="white"/>
<path d="M743.524 53.4849C742.211 53.5984 737.82 55.9849 737.107 56.8938C735.943 58.409 736.28 60.2272 737.97 60.7955C738.533 60.985 739.246 60.9468 739.884 60.9089C741.348 60.8334 743.337 59.3941 743.488 58.106C743.637 56.5909 743.524 55.0758 743.524 53.4849ZM749.343 59.8484C749.981 60.4922 749.343 60.985 748.029 61.7805C747.166 62.2727 746.152 62.9925 745.214 62.197C744.463 61.591 743.975 60.6817 743.337 59.8865C742.286 60.5684 741.197 61.3258 740.034 61.9318C738.458 62.7651 736.731 63.0306 735.079 62.1213C733.503 61.2879 733.127 59.47 734.141 57.9545C735.229 56.3259 736.994 55.5682 738.683 54.7349C740.072 54.053 741.498 53.4468 742.849 52.7272C743.225 52.5377 743.563 51.9696 743.6 51.5529C743.713 50.4543 743.675 49.3179 743.6 48.2197C743.525 46.6287 742.737 45.8711 741.123 45.9092C739.209 45.9472 737.857 46.9318 736.994 48.6364C736.618 49.3938 736.318 50.1136 735.417 50.5681C733.991 51.2879 733.578 50.6819 733.653 50.7574C733.202 50.3407 733.841 49.4319 734.179 48.9771C736.393 45.9853 741.123 44.5456 744.651 45.7199C745.665 46.0608 746.265 46.8942 746.265 48.0304C746.265 51.3638 746.265 54.659 746.303 57.9926C746.303 58.5988 746.378 59.2807 746.565 59.8486C746.903 60.947 747.691 61.1365 748.592 60.4924C748.78 60.3408 749.042 60.1136 749.343 59.8484Z" fill="white"/>
<path d="M687.635 61.9699C689.849 61.6668 689.511 61.2501 689.511 59.7346C689.511 56.0985 689.511 52.4242 689.511 48.7881C689.511 47.3487 689.211 47.3487 687.822 47.3487C687.56 47.3487 687.072 47.3864 687.072 46.8938C687.072 46.9318 687.072 46.6285 687.522 46.6285C689.174 46.6285 689.399 45.568 689.474 44.3937C689.549 42.6134 689.624 40.7953 690.825 39.3181C692.552 37.1966 695.818 35.6439 698.82 36.8937C699.233 37.0452 699.796 37.6137 699.759 37.879C699.646 38.5604 699.158 39.2426 698.783 39.8481C698.745 39.9241 698.22 39.6588 697.995 39.4697C697.582 39.1666 697.319 38.7121 696.944 38.3711C695.442 36.9318 693.528 37.3483 692.777 39.2804C691.951 41.2879 692.139 43.4091 692.252 45.5302C692.252 45.7956 692.852 46.1744 693.19 46.2123C694.204 46.3257 695.217 46.2497 696.268 46.2497C696.643 46.2497 697.244 46.0606 697.244 46.7802C697.244 47.5002 696.718 47.3489 696.268 47.3489H693.678C692.176 47.3489 692.176 47.3489 692.176 48.8638V58.4471C692.176 58.9774 692.139 59.4702 692.139 60.0003C692.176 61.2503 692.664 61.7427 693.903 61.8563C694.091 61.8563 694.278 61.932 694.541 61.9701C694.729 62.0077 695.029 62.0839 695.029 62.3489C695.029 62.3108 695.029 62.7277 694.541 62.7277C694.241 62.7277 687.259 62.7277 686.846 62.7277C686.696 62.7277 686.245 62.5758 686.734 62.1972" fill="white"/>
<path d="M706.477 51.1742C706.477 51.1742 708.579 51.0985 709.63 51.0985C712.295 51.0985 712.07 50.1137 712.032 49.2804C712.032 48.0303 711.094 46.7422 709.968 46.2496C707.04 44.9619 703.699 47.3865 703.061 50.3407C702.949 50.8709 703.174 51.1364 703.699 51.1364C704.601 51.1364 705.539 51.1742 706.477 51.1742ZM714.51 58.8635C714.397 59.1664 714.285 59.5073 714.097 59.7345C711.92 62.3105 709.218 63.5605 705.914 62.5381C702.837 61.5911 701.11 59.2806 700.509 56.1741C699.946 53.4469 700.209 50.8333 702.048 48.5606C704.113 46.0225 706.778 44.9243 709.968 45.4543C713.084 45.9469 714.623 48.5227 714.697 51.4771C714.735 52.1209 714.322 52.0833 713.872 52.0833C710.606 52.0833 707.341 52.0833 704.075 52.0833C702.912 52.0833 702.762 52.1967 702.799 53.3712C702.874 55.9848 703.55 58.2956 705.689 59.9619C708.166 61.8557 711.169 61.6284 713.422 59.4699C713.684 59.2047 713.985 58.9394 714.247 58.7123C714.322 58.7121 714.397 58.7878 714.51 58.8635Z" fill="white"/>
<path d="M717.888 48.4089C717.926 48.1437 718.151 47.9923 718.263 47.9923C720.815 47.9923 723.105 44.8862 723.18 44.9619C723.18 44.9619 723.105 48.788 723.18 48.826C723.368 48.5984 723.819 48.1818 724.006 47.9542C724.945 46.9696 725.808 45.7955 727.31 45.6817C727.948 45.606 728.661 45.606 729.224 45.8329C729.674 46.0603 730.05 46.6665 730.2 47.1589C730.387 47.7272 730.087 48.2953 729.486 48.674C728.886 49.053 728.285 49.0151 727.76 48.5982C727.572 48.4849 727.46 48.2953 727.31 48.1435C726.371 47.1589 725.733 47.121 724.757 48.0682C723.744 49.0151 723.218 50.1896 723.218 51.5909C723.218 54.3562 723.218 57.1591 723.218 59.9242C723.218 61.2121 723.744 61.7045 725.02 61.7807C725.245 61.7807 725.507 61.7807 725.733 61.856C725.883 61.9317 726.071 62.1593 726.071 62.3107C726.071 62.4624 725.808 62.6893 725.658 62.6893C725.32 62.6514 718.564 62.6893 718.226 62.6893C717.213 62.6893 717.363 61.9317 718.226 61.8181C718.339 61.8181 718.451 61.8181 718.564 61.7804C720.103 61.7045 720.553 61.2119 720.553 59.6213C720.553 56.7425 720.553 53.8257 720.553 50.9092C720.553 49.0153 720.328 48.5984 718.526 48.5984C718.151 48.5984 717.85 48.6742 717.85 48.4851" fill="white"/>
<path d="M765.333 45.9092C770.512 55.7954 766.309 68.3336 756.7 73.5609C760.341 70.0003 762.705 65.6819 764.132 60.7955C765.558 55.909 765.783 50.9469 765.333 45.9092Z" fill="white"/>
<path d="M649.649 59.1664C647.059 53.9013 646.759 48.409 648.635 42.841C650.55 37.1968 655.429 32.5378 658.319 31.4395C650.812 39.2044 648.748 48.7121 649.649 59.1664Z" fill="white"/>
<path d="M682.155 43.6741C682.155 44.3181 681.817 44.4317 681.892 44.3558C681.742 44.5832 681.441 44.0529 681.291 43.8258C681.103 43.4846 681.028 43.106 680.878 42.7269C679.752 39.9621 677.5 39.1666 674.535 40.0001C672.208 40.6436 671.232 42.159 671.532 44.2048C671.794 45.8332 672.958 46.7425 674.272 47.4246C676.224 48.4092 678.251 49.2428 680.24 50.2652C682.379 51.3638 683.468 53.2955 683.543 55.6437C683.618 58.144 682.379 60.0759 680.315 61.3257C676.824 63.4849 673.183 63.2577 669.58 61.5155C668.942 61.2122 668.754 60.72 668.754 60.1521C668.754 58.9397 668.792 57.7277 668.904 56.5534C668.942 56.288 669.129 55.7958 669.43 55.8334C669.355 55.8334 669.842 55.7579 669.918 56.5911C670.03 57.6895 670.405 58.7885 670.856 59.773C671.869 61.8562 674.647 62.4245 676.336 62.0838C677.725 61.8184 679.039 61.326 680.015 60.1899C681.704 58.1821 681.441 55.0007 679.264 53.561C677.612 52.4624 675.698 51.7047 673.934 50.7576C672.995 50.2654 672.019 49.773 671.194 49.1292C668.641 47.2351 668.491 43.4471 670.743 41.2121C672.432 39.5454 674.497 38.9018 676.786 39.0154C678.175 39.0532 679.564 39.432 680.915 39.6213C681.741 39.7349 682.079 40.2275 682.079 41.0611" fill="white"/>
<path d="M743.524 53.4849C742.211 53.5984 737.82 55.9849 737.107 56.8938C735.943 58.409 736.28 60.2272 737.97 60.7955C738.533 60.985 739.246 60.9468 739.884 60.9089C741.348 60.8334 743.337 59.3941 743.488 58.106C743.637 56.5909 743.524 55.0758 743.524 53.4849ZM749.343 59.8484C749.981 60.4922 749.343 60.985 748.029 61.7805C747.166 62.2727 746.152 62.9925 745.214 62.197C744.463 61.591 743.975 60.6817 743.337 59.8865C742.286 60.5684 741.197 61.3258 740.034 61.9318C738.458 62.7651 736.731 63.0306 735.079 62.1213C733.503 61.2879 733.127 59.47 734.141 57.9545C735.229 56.3259 736.994 55.5682 738.683 54.7349C740.072 54.053 741.498 53.4468 742.849 52.7272C743.225 52.5377 743.563 51.9696 743.6 51.5529C743.713 50.4543 743.675 49.3179 743.6 48.2197C743.525 46.6287 742.737 45.8711 741.123 45.9092C739.209 45.9472 737.857 46.9318 736.994 48.6364C736.618 49.3938 736.318 50.1136 735.417 50.5681C733.991 51.2879 733.578 50.6819 733.653 50.7574C733.202 50.3407 733.841 49.4319 734.179 48.9771C736.393 45.9853 741.123 44.5456 744.651 45.7199C745.665 46.0608 746.265 46.8942 746.265 48.0304C746.265 51.3638 746.265 54.659 746.303 57.9926C746.303 58.5988 746.378 59.2807 746.565 59.8486C746.903 60.947 747.691 61.1365 748.592 60.4924C748.78 60.3408 749.042 60.1136 749.343 59.8484Z" fill="white"/>
<path d="M687.635 61.9699C689.849 61.6668 689.511 61.2501 689.511 59.7346C689.511 56.0985 689.511 52.4242 689.511 48.7881C689.511 47.3487 689.211 47.3487 687.822 47.3487C687.56 47.3487 687.072 47.3864 687.072 46.8938C687.072 46.9318 687.072 46.6285 687.522 46.6285C689.174 46.6285 689.399 45.568 689.474 44.3937C689.549 42.6134 689.624 40.7953 690.825 39.3181C692.552 37.1966 695.818 35.6439 698.82 36.8937C699.233 37.0452 699.796 37.6137 699.759 37.879C699.646 38.5604 699.158 39.2426 698.783 39.8481C698.745 39.9241 698.22 39.6588 697.995 39.4697C697.582 39.1666 697.319 38.7121 696.944 38.3711C695.442 36.9318 693.528 37.3483 692.777 39.2804C691.951 41.2879 692.139 43.4091 692.252 45.5302C692.252 45.7956 692.852 46.1744 693.19 46.2123C694.204 46.3257 695.217 46.2497 696.268 46.2497C696.643 46.2497 697.244 46.0606 697.244 46.7802C697.244 47.5002 696.718 47.3489 696.268 47.3489H693.678C692.176 47.3489 692.176 47.3489 692.176 48.8638V58.4471C692.176 58.9774 692.139 59.4702 692.139 60.0003C692.176 61.2503 692.664 61.7427 693.903 61.8563C694.091 61.8563 694.278 61.932 694.541 61.9701C694.729 62.0077 695.029 62.0839 695.029 62.3489C695.029 62.3108 695.029 62.7277 694.541 62.7277C694.241 62.7277 687.259 62.7277 686.846 62.7277C686.696 62.7277 686.245 62.5758 686.734 62.1972" fill="white"/>
<path d="M706.477 51.1742C706.477 51.1742 708.579 51.0985 709.63 51.0985C712.295 51.0985 712.07 50.1137 712.032 49.2804C712.032 48.0303 711.094 46.7422 709.968 46.2496C707.04 44.9619 703.699 47.3865 703.061 50.3407C702.949 50.8709 703.174 51.1364 703.699 51.1364C704.601 51.1364 705.539 51.1742 706.477 51.1742ZM714.51 58.8635C714.397 59.1664 714.285 59.5073 714.097 59.7345C711.92 62.3105 709.218 63.5605 705.914 62.5381C702.837 61.5911 701.11 59.2806 700.509 56.1741C699.946 53.4469 700.209 50.8333 702.048 48.5606C704.113 46.0225 706.778 44.9243 709.968 45.4543C713.084 45.9469 714.623 48.5227 714.697 51.4771C714.735 52.1209 714.322 52.0833 713.872 52.0833C710.606 52.0833 707.341 52.0833 704.075 52.0833C702.912 52.0833 702.762 52.1967 702.799 53.3712C702.874 55.9848 703.55 58.2956 705.689 59.9619C708.166 61.8557 711.169 61.6284 713.422 59.4699C713.684 59.2047 713.985 58.9394 714.247 58.7123C714.322 58.7121 714.397 58.7878 714.51 58.8635Z" fill="white"/>
<path d="M717.888 48.4089C717.926 48.1437 718.151 47.9923 718.263 47.9923C720.815 47.9923 723.105 44.8862 723.18 44.9619C723.18 44.9619 723.105 48.788 723.18 48.826C723.368 48.5984 723.819 48.1818 724.006 47.9542C724.945 46.9696 725.808 45.7955 727.31 45.6817C727.948 45.606 728.661 45.606 729.224 45.8329C729.674 46.0603 730.05 46.6665 730.2 47.1589C730.387 47.7272 730.087 48.2953 729.486 48.674C728.886 49.053 728.285 49.0151 727.76 48.5982C727.572 48.4849 727.46 48.2953 727.31 48.1435C726.371 47.1589 725.733 47.121 724.757 48.0682C723.744 49.0151 723.218 50.1896 723.218 51.5909C723.218 54.3562 723.218 57.1591 723.218 59.9242C723.218 61.2121 723.744 61.7045 725.02 61.7807C725.245 61.7807 725.507 61.7807 725.733 61.856C725.883 61.9317 726.071 62.1593 726.071 62.3107C726.071 62.4624 725.808 62.6893 725.658 62.6893C725.32 62.6514 718.564 62.6893 718.226 62.6893C717.213 62.6893 717.363 61.9317 718.226 61.8181C718.339 61.8181 718.451 61.8181 718.564 61.7804C720.103 61.7045 720.553 61.2119 720.553 59.6213C720.553 56.7425 720.553 53.8257 720.553 50.9092C720.553 49.0153 720.328 48.5984 718.526 48.5984C718.151 48.5984 717.85 48.6742 717.85 48.4851" fill="white"/>
<path d="M765.333 45.9092C770.512 55.7954 766.309 68.3336 756.7 73.5609C760.341 70.0003 762.705 65.6819 764.132 60.7955C765.558 55.909 765.783 50.9469 765.333 45.9092Z" fill="white"/>
<path d="M649.649 59.1664C647.059 53.9013 646.759 48.409 648.635 42.841C650.55 37.1968 655.429 32.5378 658.319 31.4395C650.812 39.2044 648.748 48.7121 649.649 59.1664Z" fill="white"/>
<defs>
<clipPath id="clip0_66_4728">
<rect width="173" height="25" fill="white" transform="translate(151 35)"/>
</clipPath>
<clipPath id="clip1_66_4728">
<rect width="161" height="26" fill="white" transform="translate(343 33)"/>
</clipPath>
<clipPath id="clip2_66_4728">
<rect width="97" height="25" fill="white" transform="translate(523 39)"/>
</clipPath>
</defs>
</svg>
